<svg width="100" height="100" viewBox="0 0 100 100" fill="none" xmlns="http://www.w3.org/2000/svg">
<g clip-path="url(#clip0)">
<path d="M0.419996 27.22C0.419996 34.66 2.37999 40.1 3.99999 44.96C5.77999 50.34 7.79999 54.26 9.29999 56.82C11.46 55.64 13.74 54.5218 15.9 53.3418C11 47.1818 8.57999 40.54 7.51999 36.9C6.11999 32.08 5.93999 29.06 5.93999 27.46C5.93999 15.82 9.43999 10.56 17.48 10.56L44.96 10.56V38.18L0.339996 61.46L0.339996 73.72L50.22 100V88.74L23.32 75.6C17.46 72.72 12.68 70.72 6.89999 67.72V67.22C12.68 64.22 17.46 62.08 23.32 59.34L50.24 46.2V44.88V-0.0599899L16.94 -0.0599899C7.85999 -0.0599899 0.419996 6.82001 0.419996 27.22Z" fill="#333333"/>
<path d="M99.94 27.22C99.94 34.66 97.98 40.1 96.36 44.96C94.58 50.34 92.56 54.26 91.06 56.82C88.9 55.64 86.66 54.5494 84.5 53.3694C89.4 47.2094 91.78 40.54 92.84 36.9C94.24 32.08 94.42 29.06 94.42 27.46C94.42 15.82 90.92 10.56 82.88 10.56L55.4 10.56V38.18L100 61.46V73.72L50.12 100V88.74L77.04 75.6C82.9 72.72 87.68 70.72 93.46 67.72V67.22C87.68 64.22 82.9 62.08 77.04 59.34L50.12 46.2V44.88V-0.0599899L83.4 -0.0599899C92.48 -0.0599899 99.94 6.82001 99.94 27.22Z" fill="#1A1A1A"/>
</g>
<defs>
<clipPath id="clip0">
<rect width="100" height="100" fill="white"/>
</clipPath>
</defs>
</svg>
